<svg width="1280" height="720" viewBox="0 0 1280 720" fill="none" xmlns="http://www.w3.org/2000/svg">
  <defs>
    <linearGradient id="bg" x1="80" y1="90" x2="1160" y2="650" gradientUnits="userSpaceOnUse">
      <stop stop-color="#FAF7F0"/>
      <stop offset="1" stop-color="#EEF4E6"/>
    </linearGradient>
  </defs>
  <rect width="1280" height="720" rx="28" fill="url(#bg)"/>
  <rect x="72" y="74" width="1136" height="572" rx="28" fill="#FFFFFF" fill-opacity="0.92" stroke="#172033" stroke-opacity="0.12" stroke-width="2"/>
  <rect x="108" y="120" width="1064" height="48" rx="14" fill="#F4F1E8"/>
  <rect x="132" y="136" width="190" height="16" rx="8" fill="#172033" fill-opacity="0.14"/>
  <rect x="1006" y="130" width="140" height="28" rx="14" fill="#C1FF72" fill-opacity="0.7"/>
  <rect x="108" y="196" width="320" height="418" rx="18" fill="#172033" fill-opacity="0.04"/>
  <rect x="140" y="232" width="256" height="24" rx="12" fill="#172033" fill-opacity="0.16"/>
  <rect x="140" y="272" width="220" height="14" rx="7" fill="#172033" fill-opacity="0.11"/>
  <rect x="140" y="302" width="190" height="14" rx="7" fill="#172033" fill-opacity="0.11"/>
  <rect x="140" y="352" width="256" height="44" rx="12" fill="#FFFFFF"/>
  <rect x="162" y="369" width="160" height="10" rx="5" fill="#172033" fill-opacity="0.14"/>
  <rect x="140" y="414" width="256" height="44" rx="12" fill="#FFFFFF"/>
  <rect x="162" y="431" width="172" height="10" rx="5" fill="#172033" fill-opacity="0.14"/>
  <rect x="140" y="476" width="256" height="44" rx="12" fill="#FFFFFF"/>
  <rect x="162" y="493" width="148" height="10" rx="5" fill="#172033" fill-opacity="0.14"/>
  <rect x="140" y="548" width="140" height="28" rx="14" fill="#C1FF72" fill-opacity="0.58"/>
  <rect x="458" y="196" width="714" height="418" rx="18" fill="#172033" fill-opacity="0.04"/>
  <rect x="492" y="232" width="286" height="24" rx="12" fill="#172033" fill-opacity="0.16"/>
  <rect x="492" y="280" width="646" height="58" rx="14" fill="#FFFFFF"/>
  <rect x="520" y="302" width="240" height="14" rx="7" fill="#172033" fill-opacity="0.14"/>
  <rect x="1054" y="296" width="84" height="26" rx="13" fill="#D8F2EE"/>
  <rect x="492" y="356" width="646" height="58" rx="14" fill="#FFFFFF"/>
  <rect x="520" y="378" width="204" height="14" rx="7" fill="#172033" fill-opacity="0.14"/>
  <rect x="1038" y="372" width="100" height="26" rx="13" fill="#FFE4CF"/>
  <rect x="492" y="432" width="646" height="58" rx="14" fill="#FFFFFF"/>
  <rect x="520" y="454" width="262" height="14" rx="7" fill="#172033" fill-opacity="0.14"/>
  <rect x="1068" y="448" width="70" height="26" rx="13" fill="#DFF3B9"/>
  <rect x="492" y="512" width="646" height="74" rx="14" fill="#172033"/>
  <rect x="520" y="538" width="300" height="12" rx="6" fill="#F4F1E8" fill-opacity="0.72"/>
  <rect x="520" y="558" width="220" height="10" rx="5" fill="#F4F1E8" fill-opacity="0.56"/>
</svg>
