<svg width="1280" height="760" viewBox="0 0 1280 760" fill="none" xmlns="http://www.w3.org/2000/svg">
  <rect width="1280" height="760" rx="36" fill="#F6F2E8"/>
  <rect x="42" y="42" width="1196" height="676" rx="30" fill="white" stroke="#CFD8E2" stroke-width="2"/>
  <rect x="88" y="98" width="560" height="564" rx="22" fill="#FCFDFF" stroke="#D8DFE7"/>
  <rect x="118" y="138" width="502" height="48" rx="14" fill="#EEF3F8"/>
  <circle cx="146" cy="162" r="10" fill="#172033"/>
  <rect x="168" y="151" width="194" height="22" rx="11" fill="#C8D2DD"/>
  <rect x="118" y="204" width="236" height="96" rx="16" fill="#F5F8FC" stroke="#D8DFE7"/>
  <rect x="384" y="204" width="236" height="96" rx="16" fill="#F5F8FC" stroke="#D8DFE7"/>
  <rect x="118" y="322" width="236" height="96" rx="16" fill="#F5F8FC" stroke="#D8DFE7"/>
  <rect x="384" y="322" width="236" height="96" rx="16" fill="#F5F8FC" stroke="#D8DFE7"/>
  <rect x="118" y="442" width="502" height="96" rx="16" fill="#F5F8FC" stroke="#D8DFE7"/>
  <rect x="118" y="564" width="502" height="62" rx="16" fill="#172033"/>
  <rect x="692" y="98" width="500" height="258" rx="22" fill="#172033"/>
  <rect x="722" y="134" width="234" height="16" rx="8" fill="#A7B5C6"/>
  <rect x="722" y="166" width="356" height="16" rx="8" fill="#D8E2EE"/>
  <rect x="722" y="198" width="418" height="16" rx="8" fill="#D8E2EE"/>
  <rect x="722" y="240" width="172" height="74" rx="14" fill="#C1FF72"/>
  <rect x="912" y="240" width="250" height="74" rx="14" fill="#253149"/>
  <rect x="692" y="384" width="500" height="278" rx="22" fill="#FAFBFD" stroke="#D8DFE7"/>
  <rect x="724" y="420" width="438" height="46" rx="14" fill="#EEF3F8"/>
  <rect x="724" y="482" width="438" height="46" rx="14" fill="#EEF3F8"/>
  <rect x="724" y="544" width="270" height="46" rx="14" fill="#EEF3F8"/>
  <rect x="1012" y="544" width="150" height="46" rx="14" fill="#172033"/>
</svg>
