<svg width="1280" height="960" viewBox="0 0 1280 960" fill="none" xmlns="http://www.w3.org/2000/svg">
  <defs>
    <linearGradient id="bg" x1="120" y1="90" x2="1160" y2="870" gradientUnits="userSpaceOnUse">
      <stop stop-color="#F8F5EE"/>
      <stop offset="1" stop-color="#E9F2E4"/>
    </linearGradient>
    <linearGradient id="panel" x1="230" y1="180" x2="1010" y2="780" gradientUnits="userSpaceOnUse">
      <stop stop-color="white" stop-opacity="0.95"/>
      <stop offset="1" stop-color="white" stop-opacity="0.82"/>
    </linearGradient>
    <linearGradient id="signal" x1="605" y1="260" x2="605" y2="425" gradientUnits="userSpaceOnUse">
      <stop stop-color="#C1FF72"/>
      <stop offset="1" stop-color="#97DD43"/>
    </linearGradient>
    <filter id="blurGlow" x="0" y="0" width="1280" height="960" filterUnits="userSpaceOnUse" color-interpolation-filters="sRGB">
      <feFlood flood-opacity="0" result="BackgroundImageFix"/>
      <feBlend mode="normal" in="SourceGraphic" in2="BackgroundImageFix" result="shape"/>
      <feGaussianBlur stdDeviation="42" result="effect1_foregroundBlur"/>
    </filter>
  </defs>

  <rect width="1280" height="960" rx="48" fill="url(#bg)"/>
  <g filter="url(#blurGlow)" opacity="0.45">
    <circle cx="220" cy="210" r="130" fill="#FFE3C8"/>
    <circle cx="1060" cy="160" r="120" fill="#D0F5F1"/>
    <circle cx="1030" cy="770" r="150" fill="#DAEAAE"/>
  </g>

  <rect x="170" y="120" width="940" height="720" rx="36" fill="url(#panel)" stroke="#172033" stroke-opacity="0.12" stroke-width="2"/>
  <rect x="200" y="156" width="880" height="56" rx="16" fill="#F3F0E7"/>
  <circle cx="234" cy="184" r="8" fill="#CB7D4F"/>
  <circle cx="258" cy="184" r="8" fill="#D9D3C4"/>
  <circle cx="282" cy="184" r="8" fill="#C1FF72"/>
  <rect x="330" y="172" width="260" height="24" rx="12" fill="#172033" fill-opacity="0.08"/>

  <rect x="220" y="246" width="270" height="242" rx="22" fill="#172033" fill-opacity="0.04"/>
  <text x="248" y="284" fill="#172033" fill-opacity="0.62" font-family="'IBM Plex Sans', Arial, sans-serif" font-size="20" font-weight="600">Verification Queue</text>
  <rect x="248" y="308" width="210" height="16" rx="8" fill="#172033" fill-opacity="0.14"/>
  <rect x="248" y="338" width="180" height="16" rx="8" fill="#172033" fill-opacity="0.1"/>
  <rect x="248" y="374" width="218" height="28" rx="14" fill="#C1FF72" fill-opacity="0.55"/>
  <rect x="248" y="418" width="134" height="14" rx="7" fill="#172033" fill-opacity="0.14"/>
  <rect x="248" y="442" width="166" height="14" rx="7" fill="#172033" fill-opacity="0.1"/>

  <rect x="522" y="246" width="560" height="400" rx="22" fill="#172033" fill-opacity="0.04"/>
  <text x="550" y="284" fill="#172033" fill-opacity="0.62" font-family="'IBM Plex Sans', Arial, sans-serif" font-size="20" font-weight="600">Risk Decision Snapshot</text>

  <path d="M604.5 260L692 300V372C692 431 655 487 604.5 507C554 487 517 431 517 372V300L604.5 260Z" fill="url(#signal)" stroke="#172033" stroke-opacity="0.2" stroke-width="2"/>
  <path d="M568 378L594 403L641 346" stroke="#172033" stroke-width="14" stroke-linecap="round" stroke-linejoin="round"/>

  <rect x="732" y="322" width="320" height="38" rx="19" fill="#FFFFFF"/>
  <rect x="752" y="334" width="190" height="14" rx="7" fill="#172033" fill-opacity="0.18"/>
  <rect x="958" y="330" width="74" height="22" rx="11" fill="#C1FF72" fill-opacity="0.65"/>

  <rect x="732" y="378" width="320" height="38" rx="19" fill="#FFFFFF"/>
  <rect x="752" y="390" width="210" height="14" rx="7" fill="#172033" fill-opacity="0.18"/>
  <rect x="970" y="386" width="62" height="22" rx="11" fill="#FFE2CD"/>

  <rect x="732" y="434" width="320" height="38" rx="19" fill="#FFFFFF"/>
  <rect x="752" y="446" width="174" height="14" rx="7" fill="#172033" fill-opacity="0.18"/>
  <rect x="942" y="442" width="90" height="22" rx="11" fill="#D7F2EE"/>

  <rect x="732" y="510" width="320" height="110" rx="18" fill="#FFFFFF"/>
  <path d="M760 589L810 550L848 570L901 528L950 558L990 534L1022 546" stroke="#172033" stroke-opacity="0.38" stroke-width="8" stroke-linecap="round" stroke-linejoin="round"/>
  <circle cx="810" cy="550" r="8" fill="#C1FF72"/>
  <circle cx="901" cy="528" r="8" fill="#C1FF72"/>
  <circle cx="990" cy="534" r="8" fill="#C1FF72"/>

  <rect x="220" y="528" width="370" height="292" rx="22" fill="#172033" fill-opacity="0.04"/>
  <text x="248" y="566" fill="#172033" fill-opacity="0.62" font-family="'IBM Plex Sans', Arial, sans-serif" font-size="20" font-weight="600">Audit Timeline</text>
  <line x1="282" y1="596" x2="282" y2="774" stroke="#172033" stroke-opacity="0.2" stroke-width="4"/>
  <circle cx="282" cy="626" r="8" fill="#C1FF72"/>
  <circle cx="282" cy="686" r="8" fill="#C1FF72"/>
  <circle cx="282" cy="746" r="8" fill="#C1FF72"/>
  <rect x="310" y="612" width="238" height="28" rx="14" fill="#FFFFFF"/>
  <rect x="328" y="620" width="174" height="12" rx="6" fill="#172033" fill-opacity="0.15"/>
  <rect x="310" y="672" width="238" height="28" rx="14" fill="#FFFFFF"/>
  <rect x="328" y="680" width="156" height="12" rx="6" fill="#172033" fill-opacity="0.15"/>
  <rect x="310" y="732" width="238" height="28" rx="14" fill="#FFFFFF"/>
  <rect x="328" y="740" width="188" height="12" rx="6" fill="#172033" fill-opacity="0.15"/>

  <rect x="612" y="674" width="470" height="146" rx="22" fill="#172033"/>
  <text x="640" y="724" fill="#F4F1E8" font-family="'IBM Plex Sans', Arial, sans-serif" font-size="24" font-weight="700">KYC + AML Control Tower</text>
  <text x="640" y="758" fill="#F4F1E8" fill-opacity="0.75" font-family="'IBM Plex Sans', Arial, sans-serif" font-size="18">Identity • Watchlist • Risk • Cases • Reports</text>
  <rect x="640" y="780" width="164" height="20" rx="10" fill="#C1FF72"/>
</svg>
